<svg width="23" height="23" viewBox="0 0 23 23" fill="none" xmlns="http://www.w3.org/2000/svg">
<path d="M19.4031 1.1421L19.6173 0.927913C19.7785 0.766793 19.9699 0.639005 20.1805 0.551843C20.3911 0.464682 20.6168 0.419855 20.8447 0.419922C21.0726 0.419989 21.2983 0.464948 21.5089 0.552232C21.7194 0.639517 21.9107 0.767417 22.0718 0.928631C22.2329 1.08985 22.3607 1.28122 22.4479 1.49182C22.5351 1.70242 22.5799 1.92812 22.5798 2.15605C22.5798 2.38397 22.5348 2.60965 22.4475 2.8202C22.3602 3.03075 22.2323 3.22204 22.0711 3.38316L21.8569 3.59591C22.2233 4.00684 22.4187 4.54235 22.4029 5.09268C22.3871 5.643 22.1614 6.16645 21.7721 6.55573L6.97736 21.3519C6.88487 21.4439 6.76909 21.509 6.64242 21.5402L0.892423 22.9777C0.772093 23.0077 0.646058 23.006 0.526569 22.9729C0.40708 22.9397 0.298201 22.8762 0.210517 22.7885C0.122833 22.7008 0.0593258 22.5919 0.0261693 22.4725C-0.00698722 22.353 -0.00866535 22.2269 0.021298 22.1066L1.4588 16.3566C1.49025 16.2304 1.55533 16.1152 1.64711 16.0231L15.5075 2.16273C15.3689 2.06516 15.2002 2.01973 15.0313 2.03446C14.8625 2.04919 14.7042 2.12313 14.5846 2.24323L9.85236 6.97691C9.78553 7.04374 9.7062 7.09675 9.61889 7.13292C9.53157 7.16908 9.43799 7.1877 9.34349 7.1877C9.24898 7.1877 9.1554 7.16908 9.06808 7.13292C8.98077 7.09675 8.90144 7.04374 8.83461 6.97691C8.76778 6.91009 8.71477 6.83075 8.67861 6.74344C8.64244 6.65613 8.62383 6.56254 8.62383 6.46804C8.62383 6.37353 8.64244 6.27995 8.67861 6.19264C8.71477 6.10532 8.76778 6.02599 8.83461 5.95916L13.5697 1.22691C13.9593 0.837372 14.4831 0.611693 15.0338 0.596188C15.5844 0.580684 16.1202 0.776531 16.531 1.14354C16.926 0.790543 17.437 0.595292 17.9668 0.595027C18.4965 0.594762 19.0078 0.789501 19.4031 1.1421ZM18.4774 2.24323C18.3426 2.10848 18.1598 2.03278 17.9692 2.03278C17.7786 2.03278 17.5958 2.10848 17.461 2.24323L2.80286 16.8985L1.70461 21.293L6.09905 20.1947L20.7572 5.53941C20.8242 5.47265 20.8773 5.39333 20.9135 5.30601C20.9497 5.21869 20.9684 5.12508 20.9684 5.03054C20.9684 4.936 20.9497 4.84239 20.9135 4.75506C20.8773 4.66774 20.8242 4.58843 20.7572 4.52166L18.4774 2.24323Z" fill="black"/>
</svg>
