<svg width="22" height="20" viewBox="0 0 22 20" fill="none" xmlns="http://www.w3.org/2000/svg">
<path d="M20.8506 5.16465L16.6459 0.959964C16.1888 0.502879 15.5688 0.246094 14.9224 0.246094C14.2759 0.246094 13.656 0.502879 13.1989 0.959964L1.14746 13.0114C0.690379 13.4685 0.433594 14.0884 0.433594 14.7349C0.433594 15.3813 0.690379 16.0013 1.14746 16.4584L4.20043 19.5114C4.27619 19.587 4.36615 19.647 4.46515 19.6878C4.56415 19.7286 4.67024 19.7494 4.77731 19.749H19.9365C20.152 19.749 20.3587 19.6634 20.511 19.5111C20.6634 19.3587 20.749 19.152 20.749 18.9365C20.749 18.721 20.6634 18.5144 20.511 18.362C20.3587 18.2096 20.152 18.124 19.9365 18.124H11.3342L20.8506 8.61168C21.3077 8.15457 21.5645 7.5346 21.5645 6.88817C21.5645 6.24173 21.3077 5.62177 20.8506 5.16465ZM9.03684 18.124H5.11348L2.29817 15.3087C2.14591 15.1564 2.06038 14.9498 2.06038 14.7344C2.06038 14.519 2.14591 14.3124 2.29817 14.16L7.74903 8.7102L13.1004 14.0615L9.03684 18.124ZM19.7009 7.45996L14.249 12.9129L8.8977 7.56153L14.3506 2.11168C14.426 2.03614 14.5157 1.97621 14.6143 1.93532C14.7129 1.89443 14.8187 1.87339 14.9254 1.87339C15.0322 1.87339 15.1379 1.89443 15.2366 1.93532C15.3352 1.97621 15.4248 2.03614 15.5003 2.11168L19.7029 6.31434C19.8552 6.4667 19.9407 6.67328 19.9407 6.88868C19.9407 7.10407 19.8552 7.31065 19.7029 7.46301L19.7009 7.45996Z" fill="black"/>
</svg>
